<svg xmlns="http://www.w3.org/2000/svg" xmlns:xlink="http://www.w3.org/1999/xlink" width="500" zoomAndPan="magnify" viewBox="0 0 375 374.999991" height="500" preserveAspectRatio="xMidYMid meet" version="1.0"><defs><g/></defs><rect x="-37.5" width="450" fill="#ffffff" y="-37.499999" height="449.999989" fill-opacity="1"/><rect x="-37.5" width="450" fill="#ffde59" y="-37.499999" height="449.999989" fill-opacity="1"/><g fill="#ffffff" fill-opacity="1"><g transform="translate(18.686729, 209.999986)"><g><path d="M 32.265625 -61.46875 C 34.460938 -61.46875 36.316406 -61.023438 37.828125 -60.140625 L 36 -48.65625 C 34.34375 -49.488281 32.851562 -49.90625 31.53125 -49.90625 C 29.78125 -49.90625 28.476562 -49.332031 27.625 -48.1875 C 26.769531 -47.039062 26.195312 -45.515625 25.90625 -43.609375 L 24.953125 -37.53125 L 34.25 -37.53125 L 32.484375 -26.5625 L 23.203125 -26.5625 L 19.03125 0 L 5.703125 0 L 9.875 -26.5625 L 5.1875 -26.5625 L 6.953125 -37.53125 L 11.640625 -37.53125 L 12.4375 -42.296875 C 13.125 -46.878906 14.078125 -50.070312 15.296875 -51.875 C 16.515625 -53.6875 18.070312 -55.367188 19.96875 -56.921875 C 21.875 -58.484375 23.910156 -59.628906 26.078125 -60.359375 C 28.253906 -61.097656 30.316406 -61.46875 32.265625 -61.46875 Z M 32.265625 -61.46875 "/></g></g></g><g fill="#ffffff" fill-opacity="1"><g transform="translate(47.736033, 209.999986)"><g><path d="M 27.296875 -60.734375 L 17.703125 0 L 4.390625 0 L 13.96875 -60.734375 Z M 27.296875 -60.734375 "/></g></g></g><g fill="#ffffff" fill-opacity="1"><g transform="translate(70.492562, 209.999986)"><g><path d="M 46.171875 -22.46875 C 46.171875 -20.957031 45.976562 -18.976562 45.59375 -16.53125 L 17.5625 -16.53125 C 17.507812 -16.289062 17.472656 -15.988281 17.453125 -15.625 C 17.429688 -15.257812 17.421875 -14.878906 17.421875 -14.484375 C 17.421875 -10.335938 19.804688 -8.238281 24.578125 -8.1875 C 27.609375 -8.1875 29.90625 -9.335938 31.46875 -11.640625 L 44.265625 -11.640625 C 42.753906 -7.679688 40.09375 -4.539062 36.28125 -2.21875 C 32.476562 0.09375 28.09375 1.25 23.125 1.25 C 17.21875 1.25 12.601562 -0.1875 9.28125 -3.0625 C 5.96875 -5.945312 4.3125 -9.898438 4.3125 -14.921875 C 4.3125 -19.316406 5.375 -23.390625 7.5 -27.140625 C 9.625 -30.898438 12.550781 -33.78125 16.28125 -35.78125 C 20.007812 -37.78125 23.972656 -38.78125 28.171875 -38.78125 C 33.929688 -38.78125 38.367188 -37.375 41.484375 -34.5625 C 44.609375 -31.757812 46.171875 -27.726562 46.171875 -22.46875 Z M 34.390625 -24.21875 L 34.390625 -24.296875 C 34.335938 -26.046875 33.675781 -27.457031 32.40625 -28.53125 C 31.144531 -29.601562 29.585938 -30.140625 27.734375 -30.140625 C 25.785156 -30.140625 24.015625 -29.628906 22.421875 -28.609375 C 20.835938 -27.585938 19.679688 -26.125 18.953125 -24.21875 Z M 34.390625 -24.21875 "/></g></g></g><g fill="#ffffff" fill-opacity="1"><g transform="translate(115.786031, 209.999986)"><g><path d="M 25.25 -37.53125 L 30.734375 -29.78125 L 38.703125 -37.53125 L 55.90625 -37.53125 L 37.6875 -20.34375 L 53.203125 0 L 35.703125 0 L 27.8125 -11.125 L 16.390625 0 L -1.09375 0 L 20.859375 -20.34375 L 8.34375 -37.53125 Z M 25.25 -37.53125 "/></g></g></g><g fill="#ffffff" fill-opacity="1"><g transform="translate(168.543039, 209.999986)"><g><path d="M 26.78125 -53.125 C 26.78125 -50.832031 25.890625 -48.816406 24.109375 -47.078125 C 22.328125 -45.347656 20.316406 -44.484375 18.078125 -44.484375 C 16.316406 -44.484375 14.8125 -45.082031 13.5625 -46.28125 C 12.320312 -47.476562 11.703125 -49.003906 11.703125 -50.859375 C 11.703125 -53.046875 12.601562 -55.019531 14.40625 -56.78125 C 16.21875 -58.539062 18.242188 -59.421875 20.484375 -59.421875 C 22.296875 -59.421875 23.796875 -58.804688 24.984375 -57.578125 C 26.179688 -56.359375 26.78125 -54.875 26.78125 -53.125 Z M 23.640625 -37.53125 L 17.703125 0 L 4.390625 0 L 10.3125 -37.53125 Z M 23.640625 -37.53125 "/></g></g></g><g fill="#ffffff" fill-opacity="1"><g transform="translate(191.299568, 209.999986)"><g><path d="M 35.484375 -25.3125 C 33.441406 -27.070312 31.296875 -27.953125 29.046875 -27.953125 C 26.265625 -27.953125 23.773438 -26.898438 21.578125 -24.796875 C 19.390625 -22.703125 18.296875 -20.144531 18.296875 -17.125 C 18.296875 -14.832031 19.035156 -13 20.515625 -11.625 C 22.003906 -10.257812 23.945312 -9.578125 26.34375 -9.578125 C 28.832031 -9.578125 31.171875 -10.429688 33.359375 -12.140625 L 31.609375 -0.875 C 28.484375 0.539062 25.117188 1.25 21.515625 1.25 C 16.785156 1.25 12.734375 -0.285156 9.359375 -3.359375 C 5.992188 -6.429688 4.3125 -10.335938 4.3125 -15.078125 C 4.3125 -19.117188 5.382812 -22.96875 7.53125 -26.625 C 9.675781 -30.289062 12.601562 -33.207031 16.3125 -35.375 C 20.019531 -37.550781 24.09375 -38.6875 28.53125 -38.78125 C 32 -38.78125 34.90625 -38.046875 37.25 -36.578125 Z M 35.484375 -25.3125 "/></g></g></g><g fill="#ffffff" fill-opacity="1"><g transform="translate(227.300195, 209.999986)"><g><path d="M 38.046875 -37.53125 L 51.359375 -37.53125 L 45.4375 0 L 32.125 0 L 32.78125 -4.171875 L 32.640625 -4.171875 C 31.265625 -2.410156 29.46875 -1.066406 27.25 -0.140625 C 25.03125 0.785156 22.753906 1.25 20.421875 1.25 C 15.734375 1.25 11.890625 -0.3125 8.890625 -3.4375 C 5.890625 -6.5625 4.390625 -10.515625 4.390625 -15.296875 C 4.390625 -19.191406 5.375 -22.957031 7.34375 -26.59375 C 9.320312 -30.226562 12.03125 -33.164062 15.46875 -35.40625 C 18.914062 -37.65625 22.640625 -38.78125 26.640625 -38.78125 C 28.878906 -38.78125 30.960938 -38.363281 32.890625 -37.53125 C 34.816406 -36.707031 36.34375 -35.488281 37.46875 -33.875 Z M 25.609375 -10.3125 C 28.484375 -10.3125 30.882812 -11.300781 32.8125 -13.28125 C 34.738281 -15.257812 35.703125 -17.613281 35.703125 -20.34375 C 35.703125 -22.289062 35.039062 -23.921875 33.71875 -25.234375 C 32.40625 -26.554688 30.582031 -27.21875 28.25 -27.21875 C 25.5625 -27.21875 23.226562 -26.226562 21.25 -24.25 C 19.28125 -22.28125 18.296875 -19.878906 18.296875 -17.046875 C 18.296875 -14.992188 18.925781 -13.359375 20.1875 -12.140625 C 21.457031 -10.921875 23.265625 -10.3125 25.609375 -10.3125 Z M 25.609375 -10.3125 "/></g></g></g><g fill="#ffffff" fill-opacity="1"><g transform="translate(277.862043, 209.999986)"><g><path d="M 36.578125 -25.25 C 35.410156 -26.070312 33.582031 -26.484375 31.09375 -26.484375 C 27.976562 -26.484375 25.53125 -25.582031 23.75 -23.78125 C 21.96875 -21.976562 20.757812 -19.125 20.125 -15.21875 L 17.703125 0 L 4.390625 0 L 10.3125 -37.53125 L 23.640625 -37.53125 L 22.6875 -31.390625 L 22.828125 -31.390625 C 25.992188 -35.828125 30.457031 -38.046875 36.21875 -38.046875 L 38.5625 -38.046875 Z M 36.578125 -25.25 "/></g></g></g><g fill="#ffffff" fill-opacity="1"><g transform="translate(311.667522, 209.999986)"><g><path d="M 46.171875 -22.46875 C 46.171875 -20.957031 45.976562 -18.976562 45.59375 -16.53125 L 17.5625 -16.53125 C 17.507812 -16.289062 17.472656 -15.988281 17.453125 -15.625 C 17.429688 -15.257812 17.421875 -14.878906 17.421875 -14.484375 C 17.421875 -10.335938 19.804688 -8.238281 24.578125 -8.1875 C 27.609375 -8.1875 29.90625 -9.335938 31.46875 -11.640625 L 44.265625 -11.640625 C 42.753906 -7.679688 40.09375 -4.539062 36.28125 -2.21875 C 32.476562 0.09375 28.09375 1.25 23.125 1.25 C 17.21875 1.25 12.601562 -0.1875 9.28125 -3.0625 C 5.96875 -5.945312 4.3125 -9.898438 4.3125 -14.921875 C 4.3125 -19.316406 5.375 -23.390625 7.5 -27.140625 C 9.625 -30.898438 12.550781 -33.78125 16.28125 -35.78125 C 20.007812 -37.78125 23.972656 -38.78125 28.171875 -38.78125 C 33.929688 -38.78125 38.367188 -37.375 41.484375 -34.5625 C 44.609375 -31.757812 46.171875 -27.726562 46.171875 -22.46875 Z M 34.390625 -24.21875 L 34.390625 -24.296875 C 34.335938 -26.046875 33.675781 -27.457031 32.40625 -28.53125 C 31.144531 -29.601562 29.585938 -30.140625 27.734375 -30.140625 C 25.785156 -30.140625 24.015625 -29.628906 22.421875 -28.609375 C 20.835938 -27.585938 19.679688 -26.125 18.953125 -24.21875 Z M 34.390625 -24.21875 "/></g></g></g></svg>